<svg width="32" height="32" viewBox="0 0 32 32" fill="none" xmlns="http://www.w3.org/2000/svg">
<path d="M22.3987 24.0001C23.8922 24.0001 24.6389 24.0001 25.2093 23.7094C25.7111 23.4538 26.1191 23.0458 26.3747 22.5441C26.6654 21.9736 26.6654 21.2269 26.6654 19.7334V6.93341C26.6654 5.43994 26.6654 4.6932 26.3747 4.12277C26.1191 3.62101 25.7111 3.21306 25.2093 2.9574C24.6389 2.66675 23.8922 2.66675 22.3987 2.66675H14.932C13.4386 2.66675 12.6918 2.66675 12.1214 2.9574C11.6196 3.21306 11.2117 3.62101 10.956 4.12277C10.6654 4.6932 10.6654 5.43994 10.6654 6.93341M9.5987 29.3334H17.0654C18.5588 29.3334 19.3056 29.3334 19.876 29.0428C20.3778 28.7871 20.7857 28.3792 21.0414 27.8774C21.332 27.307 21.332 26.5602 21.332 25.0667V12.2667C21.332 10.7733 21.332 10.0265 21.0414 9.45611C20.7857 8.95434 20.3778 8.54639 19.876 8.29073C19.3056 8.00008 18.5588 8.00008 17.0654 8.00008H9.5987C8.10522 8.00008 7.35849 8.00008 6.78806 8.29073C6.28629 8.54639 5.87834 8.95434 5.62268 9.45611C5.33203 10.0265 5.33203 10.7733 5.33203 12.2667V25.0667C5.33203 26.5602 5.33203 27.307 5.62268 27.8774C5.87834 28.3792 6.28629 28.7871 6.78806 29.0428C7.35849 29.3334 8.10522 29.3334 9.5987 29.3334Z" stroke="#232C39" stroke-width="2.66667"/>
</svg>
