<svg width="44" height="44" viewBox="0 0 44 44" fill="none" xmlns="http://www.w3.org/2000/svg">
<g clip-path="url(#clip0_6679_3095)">
<path d="M44 21.9999C44 9.84966 34.1503 -7.24792e-05 22 -7.24792e-05C9.84973 -7.24792e-05 0 9.84966 0 21.9999C0 32.9808 8.04508 42.0822 18.5625 43.7327V28.3593H12.9766V21.9999H18.5625V17.1531C18.5625 11.6393 21.8469 8.59368 26.8722 8.59368C29.2792 8.59368 31.7969 9.02337 31.7969 9.02337V14.4374H29.0227C26.2898 14.4374 25.4375 16.1333 25.4375 17.8731V21.9999H31.5391L30.5637 28.3593H25.4375V43.7327C35.9549 42.0822 44 32.9808 44 21.9999Z" fill="#1877F2"/>
<path d="M30.5637 28.3594L31.5391 22H25.4375V17.8732C25.4375 16.1333 26.2898 14.4375 29.0227 14.4375H31.7969V9.02344C31.7969 9.02344 29.2792 8.59375 26.8722 8.59375C21.8469 8.59375 18.5625 11.6394 18.5625 17.1531V22H12.9766V28.3594H18.5625V43.7327C19.6826 43.9085 20.8306 44 22 44C23.1694 44 24.3174 43.9085 25.4375 43.7327V28.3594H30.5637Z" fill="white"/>
</g>
<defs>
<clipPath id="clip0_6679_3095">
<rect width="44" height="44" fill="white"/>
</clipPath>
</defs>
</svg>
