<svg width="1860" height="142" viewBox="0 0 1860 142" fill="none" xmlns="http://www.w3.org/2000/svg">
<mask id="mask0_6666_2746" style="mask-type:alpha" maskUnits="userSpaceOnUse" x="0" y="0" width="1860" height="142">
<path d="M0 60C0 26.8629 26.8629 0 60 0H1800C1833.14 0 1860 26.8629 1860 60V82C1860 115.137 1833.14 142 1800 142H60.0001C26.863 142 0 115.137 0 82V60Z" fill="url(#paint0_radial_6666_2746)"/>
</mask>
<g mask="url(#mask0_6666_2746)">
<path d="M574.885 67.738C576.508 73.2644 574.073 79.7518 568.156 86.7821C562.246 93.8044 552.901 101.318 540.824 108.874C516.674 123.983 481.645 139.229 441.463 151.025C401.281 162.821 363.569 168.929 335.084 169.272C320.84 169.444 308.916 168.173 300.148 165.46C291.369 162.744 285.815 158.602 284.192 153.076C282.57 147.549 285.004 141.062 290.921 134.032C296.832 127.009 306.177 119.495 318.253 111.94C342.404 96.8311 377.433 81.5848 417.615 69.7887C457.797 57.9926 495.508 51.8848 523.993 51.5416C538.238 51.37 550.161 52.6402 558.93 55.3534C567.708 58.0697 573.263 62.2116 574.885 67.738Z" stroke="#CCFF00" stroke-width="0.450902"/>
<path d="M562.897 26.8982C564.519 32.4246 562.085 38.9119 556.168 45.9422C550.258 52.9646 540.913 60.4786 528.836 68.0339C504.685 83.1428 469.657 98.389 429.475 110.185C389.292 121.981 351.581 128.089 323.096 128.432C308.852 128.604 296.928 127.334 288.159 124.62C279.381 121.904 273.826 117.762 272.204 112.236C270.582 106.709 273.016 100.222 278.933 93.1918C284.843 86.1694 294.188 78.6554 306.265 71.1001C330.415 55.9912 365.444 40.745 405.626 28.9488C445.808 17.1527 483.52 11.0449 512.005 10.7018C526.249 10.5302 538.173 11.8004 546.942 14.5136C555.72 17.2298 561.275 21.3718 562.897 26.8982Z" stroke="#CCFF00" stroke-width="0.450902"/>
</g>
<defs>
<radialGradient id="paint0_radial_6666_2746" cx="0" cy="0" r="1" gradientUnits="userSpaceOnUse" gradientTransform="translate(1151.57 100.325) rotate(113.16) scale(628.476 1530.56)">
<stop stop-color="#3A4454"/>
<stop offset="1" stop-color="#2E353F"/>
</radialGradient>
</defs>
</svg>
