<svg width="260" height="241" viewBox="0 0 260 241" fill="none" xmlns="http://www.w3.org/2000/svg">
<path d="M153.871 65.6752C152.355 58.4772 145.26 53.8039 138.259 56.0623C116.562 63.0616 97.0537 75.7812 81.8518 92.9884C66.6499 110.196 56.4322 131.123 52.1611 153.518C50.783 160.743 56.2952 167.208 63.6252 167.825C70.9552 168.442 77.3096 162.967 78.8865 155.782C82.5488 139.096 90.4082 123.537 101.815 110.625C113.222 97.7137 127.694 87.9961 143.801 82.3047C150.737 79.8541 155.387 72.8732 153.871 65.6752Z" fill="#C4F20A"/>
<path d="M170.408 63.4383C169.957 56.0962 175.555 49.706 182.904 50.0234C196.816 50.6242 210.566 53.5012 223.599 58.5679C240.781 65.247 256.311 75.5726 269.117 88.8328C281.923 102.093 291.701 117.973 297.778 135.377C302.387 148.579 304.783 162.421 304.899 176.345C304.96 183.7 298.379 189.072 291.057 188.366C283.735 187.66 278.465 181.135 278.2 173.784C277.839 163.71 275.968 153.722 272.628 144.157C267.821 130.389 260.086 117.828 249.955 107.338C239.825 96.8481 227.54 88.6798 213.948 83.396C204.506 79.7255 194.589 77.5077 184.533 76.7951C177.196 76.2752 170.859 70.7804 170.408 63.4383Z" fill="#252525"/>
<path d="M63.9377 190.164C56.6279 190.986 51.2986 197.602 52.8783 204.786C58.1438 228.734 70.2301 250.757 87.8093 268.119C105.388 285.481 127.56 297.293 151.571 302.261C158.775 303.751 165.324 298.34 166.055 291.02C166.787 283.701 161.411 277.262 154.251 275.574C136.303 271.341 119.769 262.244 106.528 249.166C93.2871 236.089 83.9854 219.669 79.5299 201.775C77.7526 194.637 71.2476 189.342 63.9377 190.164Z" fill="#939B99"/>
</svg>
